<svg width="87" height="87" fill="none" xmlns="http://www.w3.org/2000/svg"><g clip-path="url(#clip0)"><path d="M72.78 21.278L41.689 6.558c-7.651-3.622-16.79-.356-20.411 7.295L6.558 44.944c-3.622 7.65-.356 16.789 7.295 20.41l31.091 14.72c7.65 3.622 16.789.357 20.41-7.294l14.72-31.091c3.622-7.651.357-16.79-7.294-20.411z" fill="#FF3D40"/><path d="M29.555 13.842l6.955 3.293-4.444 28.475L56.76 57.3 71.4 42.519 35.22 25.39m-1.707 10.934l29.74 14.08M46.141 30.56l-8.398 17.738M57.21 35.8l-8.398 17.738M30.17 60.042a4.486 4.486 0 103.838-8.109 4.486 4.486 0 00-3.839 8.11zm5.966-2.138l7.227 3.422M31.934 45.547a4.688 4.688 0 10-4.01 8.47M45.498 67.3a4.486 4.486 0 103.84-8.11 4.486 4.486 0 00-3.84 8.11z" stroke="#fff" stroke-width="2.87" stroke-miterlimit="10"/></g><defs><clipPath id="clip0"><path fill="#fff" transform="rotate(25.334 13.918 61.925)" d="M0 0h65.053v65.053H0z"/></clipPath></defs></svg>