<svg width="80" height="80" fill="none" xmlns="http://www.w3.org/2000/svg"><g clip-path="url(#clip0)"><path d="M46.817 4.292L16.02 12.545C7.172 14.915 1.922 24.009 4.292 32.856l8.253 30.798c2.37 8.847 11.464 14.097 20.311 11.727l30.798-8.252c8.847-2.371 14.098-11.465 11.727-20.312L67.129 16.02C64.759 7.172 55.664 1.922 46.817 4.292z" fill="#FFB800"/><path d="M51.776 23.284l-.802-.436a9.463 9.463 0 00-12.887 3.454l-1.307 2.254-2.26-1.299a9.464 9.464 0 00-12.887 3.453l-.444.77a9.457 9.457 0 003.453 12.887l9.557 5.496c.268.202.546.388.834.558l8.916 5.147.031-.063.059.04 5.147-8.916a8.89 8.89 0 00.444-.9l5.599-9.558a9.457 9.457 0 00-3.453-12.887z" fill="#fff"/></g><defs><clipPath id="clip0"><path fill="#fff" transform="rotate(-15 63.944 8.418)" d="M0 0h65.053v65.053H0z"/></clipPath></defs></svg>