<svg width="77" height="77" fill="none" xmlns="http://www.w3.org/2000/svg"><g clip-path="url(#clip0)"><path d="M48.674 3.135l-33.67 7.034c-8.287 1.731-13.6 9.852-11.87 18.139l7.035 33.67c1.732 8.287 9.852 13.6 18.139 11.87l33.67-7.035c8.287-1.732 13.6-9.852 11.87-18.139l-7.035-33.67c-1.731-8.287-9.852-13.6-18.139-11.87z" fill="#5423AA"/><path d="M23.31 39.738a8.425 8.425 0 01-3.903-2.52 9.331 9.331 0 01-2.086-4.302 9.731 9.731 0 01.168-4.879 8.49 8.49 0 012.548-3.961 9.75 9.75 0 014.558-2.2 9.92 9.92 0 015.083.186 8.49 8.49 0 013.94 2.606 9.73 9.73 0 012.114 4.402 9.331 9.331 0 01-.196 4.778 8.392 8.392 0 01-2.586 3.876 10.045 10.045 0 01-4.59 2.173 9.87 9.87 0 01-5.05-.159zm7.048-5.67a5.63 5.63 0 00.418-3.97 5.818 5.818 0 00-1.997-3.585 3.989 3.989 0 00-3.382-.735 3.99 3.99 0 00-2.812 2.029 5.819 5.819 0 00-.394 4.085 5.512 5.512 0 002.005 3.464 4.204 4.204 0 006.162-1.287zm.01 24.825a1.64 1.64 0 01-.603-2.116L44.072 18.82a1.763 1.763 0 011.352-1.13 1.763 1.763 0 012.025 2.38L32.996 58.03a1.717 1.717 0 01-1.295 1.118 1.73 1.73 0 01-1.334-.255zm16.917-3.935a8.3 8.3 0 01-3.864-2.529 9.47 9.47 0 01-2.13-4.352 9.73 9.73 0 01.175-4.88 8.49 8.49 0 012.51-3.954 10.488 10.488 0 019.589-2.003 8.64 8.64 0 014.017 2.59 9.54 9.54 0 012.14 4.397 9.28 9.28 0 01-.217 4.808 8.452 8.452 0 01-2.586 3.877 10.69 10.69 0 01-9.59 2.003l-.044.043zm7.088-5.704a5.65 5.65 0 00.439-4.002 5.74 5.74 0 00-2.023-3.58 4.082 4.082 0 00-3.414-.728 3.977 3.977 0 00-2.806 2.027 5.8 5.8 0 00-.394 4.086 5.702 5.702 0 001.99 3.554 3.978 3.978 0 003.383.734 4.03 4.03 0 002.825-2.091z" fill="#fff"/></g><defs><clipPath id="clip0"><path fill="#fff" transform="rotate(-11.801 64.366 6.652)" d="M0 0h65.053v65.053H0z"/></clipPath></defs></svg>