<svg width="87" height="87" viewBox="0 0 87 87" fill="none" xmlns="http://www.w3.org/2000/svg">
<g clip-path="url(#clip0)">
<path d="M72.78 21.2777L41.6886 6.55822C34.038 2.93621 24.8997 6.20205 21.2777 13.8527L6.55825 44.944C2.93624 52.5946 6.20208 61.7329 13.8527 65.3549L44.9441 80.0744C52.5947 83.6964 61.7329 80.4306 65.3549 72.7799L80.0744 41.6886C83.6964 34.038 80.4306 24.8997 72.78 21.2777Z" fill="#FF3D40"/>
<path d="M29.5547 13.842L36.5104 17.1351L32.0658 45.6101L56.7596 57.3008L71.4006 42.5184L35.2192 25.3891" stroke="white" stroke-width="2.87" stroke-miterlimit="10"/>
<path d="M33.5129 36.3239L63.2528 50.4035" stroke="white" stroke-width="2.87" stroke-miterlimit="10"/>
<path d="M46.1412 30.5598L37.7435 48.298" stroke="white" stroke-width="2.87" stroke-miterlimit="10"/>
<path d="M57.2101 35.8002L48.8124 53.5383" stroke="white" stroke-width="2.87" stroke-miterlimit="10"/>
<path d="M30.1693 60.0424C32.4085 61.1025 35.0831 60.1466 36.1432 57.9074C37.2033 55.6682 36.2475 52.9936 34.0083 51.9335C31.7691 50.8734 29.0945 51.8293 28.0344 54.0685C26.9743 56.3077 27.9301 58.9823 30.1693 60.0424Z" stroke="white" stroke-width="2.87" stroke-miterlimit="10"/>
<path d="M36.1359 57.9039L43.3634 61.3256" stroke="white" stroke-width="2.87" stroke-miterlimit="10"/>
<path d="M31.9336 45.5475C31.3739 45.2534 30.7606 45.0755 30.1304 45.0246C29.5003 44.9736 28.8664 45.0506 28.2667 45.2509C27.6671 45.4513 27.1142 45.7708 26.6412 46.1902C26.1682 46.6097 25.7849 47.1205 25.5144 47.6919C25.2439 48.2633 25.0917 48.8835 25.0671 49.5152C25.0424 50.147 25.1457 50.7771 25.3708 51.3679C25.5959 51.9587 25.9381 52.4978 26.3769 52.9529C26.8157 53.4081 27.3421 53.7697 27.9242 54.0162" stroke="white" stroke-width="2.87" stroke-miterlimit="10"/>
<path d="M45.4984 67.2995C47.7376 68.3596 50.4122 67.4037 51.4723 65.1645C52.5324 62.9253 51.5765 60.2507 49.3373 59.1906C47.0981 58.1305 44.4235 59.0864 43.3634 61.3256C42.3033 63.5648 43.2592 66.2394 45.4984 67.2995Z" stroke="white" stroke-width="2.87" stroke-miterlimit="10"/>
</g>
<defs>
<clipPath id="clip0">
<rect width="65.053" height="65.053" fill="white" transform="translate(27.8359) rotate(25.3341)"/>
</clipPath>
</defs>
</svg>
