<svg width="80" height="80" viewBox="0 0 80 80" fill="none" xmlns="http://www.w3.org/2000/svg">
<g clip-path="url(#clip0)">
<path d="M46.8172 4.29228L16.0191 12.5446C7.172 14.9152 1.92173 24.0089 4.29231 32.856L12.5446 63.6541C14.9152 72.5013 24.0089 77.7515 32.8561 75.3809L63.6542 67.1286C72.5013 64.758 77.7516 55.6643 75.381 46.8172L67.1287 16.0191C64.7581 7.17197 55.6643 1.9217 46.8172 4.29228Z" fill="#FFB800"/>
<path d="M51.776 23.2844L50.974 22.8484C48.8054 21.6054 46.233 21.2708 43.8186 21.9178C41.4041 22.5647 39.3437 24.1406 38.0871 26.3015L36.7799 28.5564L34.5202 27.2572C32.3516 26.0142 29.7793 25.6796 27.3648 26.3265C24.9504 26.9735 22.8899 28.5494 21.6334 30.7102L21.1888 31.4802C19.944 33.6485 19.6084 36.2214 20.2555 38.6364C20.9026 41.0513 22.4797 43.1118 24.6418 44.3671L34.199 49.8633C34.4665 50.0647 34.7451 50.2508 35.0335 50.4208L43.9491 55.5682L43.9802 55.5051L44.0386 55.5442L49.1861 46.6286C49.3509 46.3372 49.4991 46.0367 49.63 45.7286L55.229 36.1713C56.4738 34.0031 56.8094 31.4301 56.1623 29.0152C55.5152 26.6002 53.9381 24.5397 51.776 23.2844Z" fill="white"/>
</g>
<defs>
<clipPath id="clip0">
<rect width="65.053" height="65.053" fill="white" transform="translate(0 16.8369) rotate(-15)"/>
</clipPath>
</defs>
</svg>
