<svg width="77" height="77" viewBox="0 0 77 77" fill="none" xmlns="http://www.w3.org/2000/svg">
<g clip-path="url(#clip0)">
<path d="M48.6743 3.13463L15.0038 10.1693C6.71741 11.9005 1.40344 20.0214 3.13467 28.3077L10.1693 61.9782C11.9006 70.2646 20.0214 75.5786 28.3077 73.8473L61.9783 66.8127C70.2646 65.0814 75.5786 56.9606 73.8474 48.6743L66.8127 15.0037C65.0815 6.71737 56.9606 1.4034 48.6743 3.13463Z" fill="#5423AA"/>
<path d="M23.3097 39.738C21.7983 39.2801 20.4461 38.4067 19.4072 37.2174C18.3501 35.9891 17.6311 34.5068 17.321 32.9163C16.9616 31.3021 17.0195 29.623 17.4892 28.0374C17.948 26.503 18.8314 25.1295 20.0374 24.0758C21.3365 22.9541 22.9087 22.1953 24.595 21.8759C26.2766 21.4951 28.0284 21.5591 29.6777 22.0617C31.2113 22.54 32.5776 23.4437 33.6181 24.6677C34.6855 25.9315 35.413 27.4466 35.732 29.0698C36.0828 30.6524 36.0152 32.2991 35.536 33.8477C35.0572 35.3579 34.1606 36.7018 32.9499 37.7239C31.6314 38.8294 30.0509 39.5778 28.3601 39.8971C26.6913 40.2832 24.9508 40.2284 23.3097 39.738ZM30.3582 34.0688C30.9779 32.8409 31.1267 31.4285 30.7763 30.0985C30.5684 28.7003 29.8586 27.4257 28.7795 26.5126C28.307 26.144 27.7576 25.8866 27.172 25.7595C26.5864 25.6324 25.9797 25.6388 25.397 25.7782C24.8058 25.883 24.246 26.1199 23.7591 26.4711C23.2722 26.8223 22.8709 27.2789 22.585 27.8068C21.9618 29.0755 21.8217 30.5277 22.1909 31.8922C22.4015 33.2573 23.1169 34.4936 24.1956 35.3563C24.673 35.7116 25.2203 35.9615 25.8014 36.0895C26.3825 36.2176 26.9842 36.2208 27.5666 36.0992C28.1491 35.9775 28.6991 35.7336 29.1803 35.3836C29.6615 35.0336 30.063 34.5854 30.3582 34.0688ZM30.3673 58.8926C30.0224 58.6774 29.7698 58.3417 29.6585 57.9507C29.5472 57.5597 29.5852 57.1413 29.7651 56.7767L44.0721 18.8208C44.1786 18.5305 44.3596 18.2733 44.5969 18.075C44.8341 17.8767 45.1194 17.7443 45.424 17.691C45.7379 17.6199 46.0652 17.6361 46.3706 17.7378C46.676 17.8395 46.9477 18.0228 47.1563 18.2679C47.3649 18.513 47.5024 18.8105 47.554 19.1282C47.6056 19.4459 47.5692 19.7716 47.4489 20.0701L32.9958 58.0298C32.8965 58.313 32.7248 58.5651 32.4977 58.7612C32.2706 58.9573 31.9961 59.0905 31.7015 59.1476C31.4734 59.1973 31.2376 59.2003 31.0083 59.1565C30.779 59.1126 30.561 59.0229 30.3673 58.8926ZM47.2854 54.9576C45.7841 54.4973 44.4442 53.6205 43.4212 52.4291C42.3458 51.1877 41.6117 49.688 41.2911 48.0771C40.9335 46.462 40.9936 44.7824 41.4657 43.1969C41.9151 41.6698 42.7848 40.2998 43.9756 39.2432C45.2902 38.1541 46.8508 37.4024 48.5219 37.0533C50.1929 36.7041 51.924 36.7682 53.5647 37.2398C55.1206 37.7083 56.5129 38.6059 57.5818 39.8299C58.6648 41.0847 59.4022 42.6 59.7213 44.2266C60.0735 45.8206 59.9989 47.4794 59.5051 49.0354C59.0233 50.5443 58.1272 51.8874 56.919 52.9116C55.596 53.9856 54.0354 54.7277 52.3674 55.0762C50.6994 55.4247 48.9722 55.3694 47.3299 54.915L47.2854 54.9576ZM54.3733 49.2536C55.0058 48.0189 55.1618 46.5946 54.8117 45.2523C54.6029 43.85 53.8825 42.5746 52.7893 41.6718C52.3094 41.3055 51.7542 41.0503 51.1638 40.9244C50.5733 40.7986 49.9623 40.8053 49.3748 40.944C48.7846 41.0487 48.2257 41.2854 47.7399 41.6365C47.254 41.9875 46.8538 42.4438 46.5692 42.9713C45.9442 44.2395 45.8041 45.6924 46.1751 47.0567C46.3783 48.446 47.0869 49.7115 48.1652 50.6106C48.6373 50.98 49.1867 51.2379 49.7724 51.3651C50.3582 51.4923 50.9651 51.4854 51.5478 51.345C52.1462 51.2325 52.7113 50.9859 53.2007 50.6237C53.6901 50.2614 54.091 49.793 54.3733 49.2536Z" fill="white"/>
</g>
<defs>
<clipPath id="clip0">
<rect width="65.053" height="65.053" fill="white" transform="translate(0 13.304) rotate(-11.8008)"/>
</clipPath>
</defs>
</svg>
